<svg width="28" height="28" viewBox="0 0 28 28" fill="none" xmlns="http://www.w3.org/2000/svg">
<g id="016-calendar-silhouette">
<g id="Layer 93">
<path id="Vector" d="M22.1666 5.83325H20.9999V3.49992C20.9999 3.1905 20.877 2.89375 20.6582 2.67496C20.4394 2.45617 20.1427 2.33325 19.8333 2.33325C19.5238 2.33325 19.2271 2.45617 19.0083 2.67496C18.7895 2.89375 18.6666 3.1905 18.6666 3.49992V5.83325H9.33325V3.49992C9.33325 3.1905 9.21034 2.89375 8.99154 2.67496C8.77275 2.45617 8.47601 2.33325 8.16659 2.33325C7.85717 2.33325 7.56042 2.45617 7.34163 2.67496C7.12284 2.89375 6.99992 3.1905 6.99992 3.49992V5.83325H5.83325C4.90499 5.83325 4.01476 6.202 3.35838 6.85838C2.702 7.51476 2.33325 8.405 2.33325 9.33325V10.4999H25.6666V9.33325C25.6666 8.405 25.2978 7.51476 24.6415 6.85838C23.9851 6.202 23.0948 5.83325 22.1666 5.83325Z" fill="#717579"/>
<path id="Vector_2" d="M2.33325 22.1666C2.33325 23.0948 2.702 23.9851 3.35838 24.6414C4.01476 25.2978 4.90499 25.6666 5.83325 25.6666H22.1666C23.0948 25.6666 23.9851 25.2978 24.6415 24.6414C25.2978 23.9851 25.6666 23.0948 25.6666 22.1666V12.8333H2.33325V22.1666Z" fill="#717579FF"/>
</g>
</g>
</svg>
