<svg width="28" height="28" viewBox="0 0 28 28" fill="none" xmlns="http://www.w3.org/2000/svg">
<g id="015-email">
<path id="Vector" d="M27.076 6.24662C26.962 5.48439 26.5787 4.78822 25.9955 4.28434C25.4123 3.78045 24.6679 3.50219 23.8971 3.5H4.10289C3.33217 3.50219 2.58775 3.78045 2.00456 4.28434C1.42137 4.78822 1.03803 5.48439 0.924011 6.24662L14 14.7079L27.076 6.24662Z" fill="#717579"/>
<path id="Vector_2" d="M14.4751 16.4849C14.3336 16.5765 14.1686 16.6252 14 16.6252C13.8314 16.6252 13.6664 16.5765 13.5249 16.4849L0.875 8.30019V21.2721C0.875926 22.1279 1.2163 22.9484 1.82145 23.5535C2.42659 24.1586 3.24707 24.499 4.10288 24.4999H23.8971C24.7529 24.499 25.5734 24.1586 26.1786 23.5535C26.7837 22.9484 27.1241 22.1279 27.125 21.2721V8.29932L14.4751 16.4849Z" fill="#717579FF"/>
</g>
</svg>
