<svg width="24" height="24" viewBox="0 0 24 24" fill="none" xmlns="http://www.w3.org/2000/svg">
<g id="002-grid">
<path id="Vector" d="M8.00002 1H4.00002C2.34316 1 1.00002 2.34315 1.00002 4V8C1.00002 9.65685 2.34316 11 4.00002 11H8.00002C9.65687 11 11 9.65685 11 8V4C11 2.34315 9.65687 1 8.00002 1Z" fill="#717579"/>
<path id="Vector_2" d="M20 1H16C14.3431 1 13 2.34315 13 4V8C13 9.65685 14.3431 11 16 11H20C21.6568 11 23 9.65685 23 8V4C23 2.34315 21.6568 1 20 1Z" fill="#717579"/>
<path id="Vector_3" d="M8.00002 13H4.00002C2.34316 13 1.00002 14.3431 1.00002 16V20C1.00002 21.6569 2.34316 23 4.00002 23H8.00002C9.65687 23 11 21.6569 11 20V16C11 14.3431 9.65687 13 8.00002 13Z" fill="#717579"/>
<path id="Vector_4" d="M20 13H16C14.3431 13 13 14.3431 13 16V20C13 21.6569 14.3431 23 16 23H20C21.6568 23 23 21.6569 23 20V16C23 14.3431 21.6568 13 20 13Z" fill="#717579"/>
</g>
</svg>
