<svg width="24" height="24" viewBox="0 0 24 24" fill="none" xmlns="http://www.w3.org/2000/svg">
<g id="buyer 1">
<path id="Vector" d="M11.929 15C15.795 15 18.929 11.866 18.929 8C18.929 4.13401 15.795 1 11.929 1C8.06302 1 4.92902 4.13401 4.92902 8C4.92902 11.866 8.06302 15 11.929 15Z" fill="#717579"/>
<path id="Vector_2" d="M19.707 14.223C19.478 13.994 19.234 13.78 18.984 13.571C18.1439 14.64 17.0719 15.5041 15.8489 16.0981C14.6259 16.6921 13.2839 17.0004 11.9243 16.9998C10.5647 16.9991 9.22299 16.6895 8.00058 16.0942C6.77817 15.499 5.70701 14.6338 4.86799 13.564C3.63133 14.5937 2.63718 15.8838 1.95647 17.342C1.27576 18.8002 0.925264 20.3907 0.929994 22C0.929994 22.2652 1.03535 22.5195 1.22289 22.7071C1.41042 22.8946 1.66478 23 1.92999 23H21.93C22.1952 23 22.4496 22.8946 22.6371 22.7071C22.8246 22.5195 22.93 22.2652 22.93 22C22.9336 20.555 22.6506 19.1236 22.0973 17.7887C21.5441 16.4538 20.7317 15.2418 19.707 14.223Z" fill="#717579"/>
</g>
</svg>
