<svg width="24" height="24" viewBox="0 0 24 24" fill="none" xmlns="http://www.w3.org/2000/svg">
<g id="001-home">
<g id="Layer 2">
<path id="Vector" d="M22.44 13.035C22.3838 13.1719 22.2882 13.2892 22.1654 13.3719C22.0426 13.4547 21.8981 13.4992 21.75 13.5H19.5V21C19.5 21.5967 19.263 22.169 18.841 22.5909C18.4191 23.0129 17.8468 23.25 17.25 23.25H14.25C14.0511 23.25 13.8604 23.1709 13.7197 23.0303C13.579 22.8896 13.5 22.6989 13.5 22.5V18C13.5 17.801 13.421 17.6103 13.2804 17.4696C13.1397 17.329 12.9489 17.25 12.75 17.25H11.25C11.0511 17.25 10.8604 17.329 10.7197 17.4696C10.579 17.6103 10.5 17.801 10.5 18V22.5C10.5 22.6989 10.421 22.8896 10.2804 23.0303C10.1397 23.1709 9.94894 23.25 9.75003 23.25H6.75003C6.15329 23.25 5.581 23.0129 5.15904 22.5909C4.73708 22.169 4.50003 21.5967 4.50003 21V13.5H2.25003C2.10196 13.4992 1.95742 13.4547 1.83463 13.3719C1.71184 13.2892 1.61629 13.1719 1.56003 13.035C1.50259 12.8984 1.4869 12.7478 1.51493 12.6023C1.54296 12.4569 1.61346 12.3229 1.71753 12.2175L11.4675 2.46745C11.5373 2.39716 11.6202 2.34136 11.7116 2.30329C11.803 2.26521 11.901 2.24561 12 2.24561C12.099 2.24561 12.1971 2.26521 12.2885 2.30329C12.3799 2.34136 12.4628 2.39716 12.5325 2.46745L22.2825 12.2175C22.3866 12.3229 22.4571 12.4569 22.4851 12.6023C22.5132 12.7478 22.4975 12.8984 22.44 13.035Z" fill="#717579FF"/>
</g>
</g>
</svg>
