<svg width="32" height="32" viewBox="0 0 32 32" fill="none" xmlns="http://www.w3.org/2000/svg">
<g id="magnifying-glass (1) 1">
<g id="x32  Magnifying Glass">
<path id="Vector" d="M26.8567 24.9736L22.5325 20.6494C23.8431 18.9338 24.5618 16.8529 24.5621 14.6571C24.5621 12.011 23.5315 9.52303 21.6601 7.65194C19.789 5.78084 17.3013 4.75024 14.6549 4.75024C12.0087 4.75024 9.52075 5.78084 7.64966 7.65194C3.78703 11.5149 3.78703 17.8 7.64966 21.6624C9.52075 23.5338 12.0087 24.5644 14.6549 24.5644C16.8507 24.5641 18.9316 23.8453 20.6471 22.5348L24.9713 26.859C25.2314 27.1194 25.5728 27.2496 25.914 27.2496C26.2551 27.2496 26.5966 27.1194 26.8567 26.859C27.3775 26.3385 27.3775 25.4941 26.8567 24.9736ZM9.53507 19.7769C6.71216 16.954 6.71248 12.3606 9.53507 9.53735C10.9026 8.17017 12.7209 7.41691 14.6549 7.41691C16.5891 7.41691 18.4071 8.17017 19.7747 9.53735C21.1422 10.9049 21.8954 12.7232 21.8954 14.6571C21.8954 16.5914 21.1422 18.4094 19.7747 19.7769C18.4071 21.1444 16.5891 21.8977 14.6549 21.8977C12.7209 21.8977 10.9026 21.1444 9.53507 19.7769Z" fill="#717579FF"/>
</g>
</g>
</svg>
