<svg width="24" height="24" viewBox="0 0 24 24" fill="none" xmlns="http://www.w3.org/2000/svg">
<g id="003-chat">
<path id="Vector" d="M18 1H6.00002C4.67442 1.00159 3.40357 1.52888 2.46624 2.46622C1.5289 3.40356 1.0016 4.67441 1.00002 6V14C1.00147 15.1522 1.40011 16.2687 2.12873 17.1613C2.85736 18.0538 3.87143 18.6679 5.00002 18.9V22C4.99999 22.181 5.04911 22.3587 5.14214 22.514C5.23517 22.6693 5.36862 22.7965 5.52825 22.8819C5.68788 22.9673 5.8677 23.0078 6.04853 22.999C6.22936 22.9902 6.40441 22.9325 6.55502 22.832L12.3 19H18C19.3256 18.9984 20.5965 18.4711 21.5338 17.5338C22.4711 16.5964 22.9984 15.3256 23 14V6C22.9984 4.67441 22.4711 3.40356 21.5338 2.46622C20.5965 1.52888 19.3256 1.00159 18 1ZM16 13H8.00002C7.7348 13 7.48044 12.8946 7.29291 12.7071C7.10537 12.5196 7.00002 12.2652 7.00002 12C7.00002 11.7348 7.10537 11.4804 7.29291 11.2929C7.48044 11.1054 7.7348 11 8.00002 11H16C16.2652 11 16.5196 11.1054 16.7071 11.2929C16.8947 11.4804 17 11.7348 17 12C17 12.2652 16.8947 12.5196 16.7071 12.7071C16.5196 12.8946 16.2652 13 16 13ZM18 9H6.00002C5.7348 9 5.48044 8.89464 5.29291 8.70711C5.10537 8.51957 5.00002 8.26522 5.00002 8C5.00002 7.73478 5.10537 7.48043 5.29291 7.29289C5.48044 7.10536 5.7348 7 6.00002 7H18C18.2652 7 18.5196 7.10536 18.7071 7.29289C18.8947 7.48043 19 7.73478 19 8C19 8.26522 18.8947 8.51957 18.7071 8.70711C18.5196 8.89464 18.2652 9 18 9Z" fill="#717579"/>
</g>
</svg>
