<svg width="28" height="28" viewBox="0 0 28 28" fill="none" xmlns="http://www.w3.org/2000/svg">
<g id="005-notification-bell">
<path id="Vector" d="M23.3333 19.8332H23.1187C23.2568 19.4595 23.3295 19.0648 23.3333 18.6665V12.8332C23.3294 10.7662 22.6402 8.7589 21.3735 7.12553C20.1068 5.49216 18.3343 4.32496 16.3333 3.80667V3.49984C16.3333 2.881 16.0875 2.28751 15.6499 1.84992C15.2123 1.41234 14.6188 1.1665 14 1.1665C13.3812 1.1665 12.7877 1.41234 12.3501 1.84992C11.9125 2.28751 11.6667 2.881 11.6667 3.49984V3.80667C9.66574 4.32496 7.89317 5.49216 6.6265 7.12553C5.35983 8.7589 4.67058 10.7662 4.66667 12.8332V18.6665C4.67053 19.0648 4.74316 19.4595 4.88133 19.8332H4.66667C4.35725 19.8332 4.0605 19.9561 3.84171 20.1749C3.62292 20.3937 3.5 20.6904 3.5 20.9998C3.5 21.3093 3.62292 21.606 3.84171 21.8248C4.0605 22.0436 4.35725 22.1665 4.66667 22.1665H23.3333C23.6428 22.1665 23.9395 22.0436 24.1583 21.8248C24.3771 21.606 24.5 21.3093 24.5 20.9998C24.5 20.6904 24.3771 20.3937 24.1583 20.1749C23.9395 19.9561 23.6428 19.8332 23.3333 19.8332Z" fill="#717579"/>
<path id="Vector_2" d="M9.9819 24.5C10.3863 25.2088 10.971 25.7981 11.6766 26.2079C12.3823 26.6178 13.1838 26.8337 13.9999 26.8337C14.816 26.8337 15.6175 26.6178 16.3232 26.2079C17.0288 25.7981 17.6135 25.2088 18.0179 24.5H9.9819Z" fill="#717579FF"/>
</g>
</svg>
