<svg width="24" height="24" viewBox="0 0 24 24" fill="none" xmlns="http://www.w3.org/2000/svg">
<g id="022-energy" clip-path="url(#clip0_9_168)">
<path id="Vector" d="M21.2961 8.6858C21.1797 8.44064 20.9324 8.28427 20.6609 8.28427H13.6088L17.8772 1.06083C18.0057 0.843469 18.0077 0.573844 17.8825 0.354609C17.7574 0.135375 17.5243 -9.37014e-05 17.2718 4.86277e-08L11.2468 0.000656299C10.9967 0.000750049 10.7655 0.1335 10.6396 0.349453L2.73175 13.905C2.60485 14.1224 2.60396 14.3911 2.72935 14.6094C2.85475 14.8277 3.08729 14.9624 3.33906 14.9624H10.3463L8.30537 23.1263C8.22549 23.4457 8.37807 23.7779 8.67245 23.9255C8.77285 23.9757 8.88053 24 8.98717 24C9.19323 24 9.39517 23.9094 9.53232 23.7413L21.2058 9.43186C21.3774 9.22148 21.4126 8.93105 21.2961 8.6858Z" fill="#717579"/>
</g>
<defs>
<clipPath id="clip0_9_168">
<rect width="24" height="24" fill="white"/>
</clipPath>
</defs>
</svg>
